<svg width="125" height="125" viewBox="0 0 125 125" fill="none" xmlns="http://www.w3.org/2000/svg">
<path fill-rule="evenodd" clip-rule="evenodd" d="M35.7027 15.477C53.3697 13.5077 71.6303 13.5077 89.2973 15.477C99.7463 16.6429 108.187 24.8604 109.416 35.3539C111.528 53.39 111.528 71.6101 109.416 89.6405C108.187 100.134 99.7463 108.357 89.2973 109.523C71.6303 111.492 53.3697 111.492 35.7027 109.523C25.2523 108.357 16.8134 100.134 15.5841 89.6405C13.472 71.6101 13.472 53.39 15.5841 35.3539C16.8134 24.8604 25.2523 16.6429 35.7027 15.477ZM101.431 44.1627C103.107 42.4891 103.107 39.7779 101.431 38.1043C99.7561 36.4306 97.0377 36.4306 95.3628 38.1043L58.3441 75.0633L38.491 55.2421C36.8161 53.5685 34.0976 53.5685 32.4227 55.2421C30.7464 56.9157 30.7464 59.627 32.4227 61.3006L55.31 84.151C56.9849 85.8246 59.7033 85.8246 61.3783 84.151L101.431 44.1627Z" fill="#D9D9D9"/>
</svg>
