<svg width="125" height="125" viewBox="0 0 125 125" fill="none" xmlns="http://www.w3.org/2000/svg">
<path fill-rule="evenodd" clip-rule="evenodd" d="M35.7026 15.4766C53.3696 13.5078 71.6304 13.5078 89.2974 15.4766C99.7463 16.6426 108.187 24.8604 109.416 35.3535C111.528 53.3896 111.528 71.6104 109.416 89.6406C108.187 100.134 99.7463 108.357 89.2974 109.523C71.6304 111.492 53.3696 111.492 35.7026 109.523C25.2522 108.357 16.8135 100.134 15.5842 89.6406C13.4719 71.6104 13.4719 53.3896 15.5842 35.3535C16.8135 24.8604 25.2522 16.6426 35.7026 15.4766ZM40.1228 23.2334C54.8757 21.5889 70.1243 21.5889 84.8772 23.2334C93.6025 24.207 100.651 31.0693 101.677 39.832C103.441 54.8926 103.441 70.1074 101.677 85.1641C100.651 93.9268 93.6025 100.793 84.8772 101.767C70.1243 103.411 54.8757 103.411 40.1228 101.767C31.3962 100.793 24.3494 93.9268 23.3228 85.1641C21.5591 70.1074 21.5591 54.8926 23.3228 39.832C24.3494 31.0693 31.3962 24.207 40.1228 23.2334Z" fill="#D9D9D9"/>
</svg>
